<svg width="40" height="40" viewBox="0 0 40 40" fill="none" xmlns="http://www.w3.org/2000/svg">
<g clip-path="url(#clip0_2053_1102)">
<path d="M27.8126 12.5C26.5844 15.4844 24.2157 16.2969 21.2501 16.5625C19.4063 21.9781 21.4438 27.9594 25.3126 31.875C32.7751 28.3469 34.1438 17.8125 27.8126 12.5Z" fill="#3F3D3F"/>
<path d="M22.6344 14.1593C24.0235 13.5762 25.1836 12.5544 25.9375 11.25C25.1222 10.8072 24.258 10.4611 23.3625 10.2187L25.1 8.09371C25.249 7.90058 25.3169 7.65699 25.2892 7.41464C25.2615 7.1723 25.1405 6.95028 24.9517 6.79573C24.763 6.64118 24.5215 6.56627 24.2785 6.58689C24.0354 6.60752 23.81 6.72207 23.65 6.90621L21.2906 9.79058C20.4339 9.67808 19.5661 9.67808 18.7094 9.79058L16.35 6.90621C16.2734 6.80692 16.1776 6.72401 16.0684 6.66238C15.9592 6.60076 15.8387 6.56167 15.7141 6.54744C15.5895 6.53321 15.4633 6.54412 15.343 6.57952C15.2227 6.61493 15.1108 6.67412 15.0137 6.75358C14.9167 6.83303 14.8366 6.93115 14.7782 7.04212C14.7198 7.15308 14.6842 7.27464 14.6736 7.3996C14.663 7.52456 14.6776 7.65037 14.7165 7.7696C14.7553 7.88882 14.8178 7.99904 14.9 8.09371L16.6375 10.2187C15.742 10.4611 14.8778 10.8072 14.0625 11.25C14.9026 12.6847 16.2316 13.7686 17.806 14.3029C19.3803 14.8373 21.0945 14.7863 22.6344 14.1593Z" fill="#3F3D3F"/>
<path d="M14.6876 15.625C13.5752 14.841 12.7083 13.7573 12.1876 12.5C11.8751 12.7719 7.36571 16.6844 8.12509 22.8125C8.89384 29.0156 14.3313 31.7062 14.6876 31.875C18.5563 27.9594 20.5938 21.9781 18.7501 16.5625C18.1032 16.5062 16.0907 16.6062 14.6876 15.625Z" fill="#3F3D3F"/>
</g>
<defs>
<clipPath id="clip0_2053_1102">
<rect width="40" height="40" fill="white"/>
</clipPath>
</defs>
</svg>
