<svg width="40" height="40" viewBox="0 0 40 40" fill="none" xmlns="http://www.w3.org/2000/svg">
<path d="M30.0469 20C30.0475 21.5683 29.6732 23.114 28.9553 24.5083C28.2374 25.9026 27.1967 27.1052 25.9198 28.0157C24.643 28.9263 23.167 29.5185 21.6148 29.743C20.0627 29.9675 18.4794 29.8177 16.9969 29.3062C18.9338 28.6385 20.6142 27.383 21.8036 25.7148C22.9931 24.0466 23.6323 22.0488 23.6323 20C23.6323 17.9512 22.9931 15.9534 21.8036 14.2852C20.6142 12.617 18.9338 11.3615 16.9969 10.6938C18.4794 10.1823 20.0627 10.0325 21.6148 10.257C23.167 10.4815 24.643 11.0737 25.9198 11.9843C27.1967 12.8948 28.2374 14.0974 28.9553 15.4917C29.6732 16.886 30.0475 18.4317 30.0469 20ZM20 7.5C17.5277 7.5 15.111 8.23311 13.0554 9.60663C10.9998 10.9801 9.39761 12.9324 8.45151 15.2165C7.50542 17.5005 7.25787 20.0139 7.74019 22.4386C8.2225 24.8634 9.41301 27.0907 11.1612 28.8388C12.9093 30.587 15.1366 31.7775 17.5614 32.2598C19.9861 32.7421 22.4995 32.4946 24.7835 31.5485C27.0676 30.6024 29.0199 29.0002 30.3934 26.9446C31.7669 24.889 32.5 22.4723 32.5 20C32.5 16.6848 31.183 13.5054 28.8388 11.1612C26.4946 8.81696 23.3152 7.5 20 7.5Z" fill="#3F3D3F"/>
</svg>
