<svg width="40" height="40" viewBox="0 0 40 40" fill="none" xmlns="http://www.w3.org/2000/svg">
<g clip-path="url(#clip0_2053_1147)">
<path d="M31.528 17.9656C31.0118 15.3973 29.6477 13.0768 27.6546 11.3767C25.6615 9.67662 23.155 8.69541 20.5374 8.59058C21.0149 7.27404 20.9904 5.82771 20.4687 4.52808C19.8569 5.90687 18.9502 7.13468 17.8124 8.12495C17.3275 8.5826 16.7753 8.96307 16.1749 9.25308C15.5797 9.48237 14.9976 9.74422 14.4312 10.0375C12.2257 11.2655 10.4729 13.1694 9.43115 15.4687C8.83097 16.7988 8.48643 18.2299 8.41553 19.6875C9.70612 19.2836 11.0213 18.9632 12.353 18.7281C13.5343 18.5218 14.7312 18.4156 15.9187 18.2562C18.1062 17.9437 19.828 16.675 21.0343 14.8187C22.5591 15.3092 23.8356 16.3697 24.5972 17.7788C25.3588 19.1879 25.5467 20.8368 25.1217 22.3811C24.6967 23.9255 23.6917 25.246 22.3163 26.0671C20.9409 26.8881 19.3016 27.1462 17.7405 26.7875C18.3423 28.1386 19.2925 29.3056 20.4937 30.1687C21.1051 30.6069 21.7739 30.9592 22.4812 31.2156C22.7947 31.3703 23.1411 31.4464 23.4905 31.4374C23.8946 31.3394 24.2866 31.1969 24.6593 31.0124C27.1322 29.9601 29.1665 28.0869 30.419 25.709C31.6714 23.3311 32.0653 20.5939 31.5343 17.9593L31.528 17.9656ZM12.753 14.0625C13.0918 13.725 13.5035 13.4698 13.9564 13.3164C14.4094 13.1631 14.8914 13.1158 15.3655 13.1781C15.4216 13.6503 15.37 14.129 15.2145 14.5784C15.059 15.0278 14.8037 15.4361 14.4678 15.7726C14.1319 16.1091 13.724 16.3652 13.2749 16.5214C12.8259 16.6777 12.3472 16.7302 11.8749 16.675C11.8118 16.2013 11.8582 15.7196 12.0104 15.2667C12.1626 14.8138 12.4167 14.4018 12.753 14.0625ZM18.878 31.8937C16.4398 31.6412 14.1428 30.6284 12.3118 28.9987C10.4807 27.369 9.20847 25.2049 8.6749 22.8125C11.2171 21.4281 14.0778 20.7342 16.9718 20.7999C15.9847 22.3002 15.519 24.0837 15.6468 25.875C15.7249 27.0506 16.0537 28.1959 16.611 29.234C17.1683 30.2722 17.9413 31.179 18.878 31.8937Z" fill="#3F3D3F"/>
</g>
<defs>
<clipPath id="clip0_2053_1147">
<rect width="40" height="40" fill="white"/>
</clipPath>
</defs>
</svg>
