<svg width="40" height="40" viewBox="0 0 40 40" fill="none" xmlns="http://www.w3.org/2000/svg">
<g clip-path="url(#clip0_2053_1126)">
<path d="M7.16555 25.3563L8.72805 29.1656C8.84273 29.447 9.05165 29.6796 9.31903 29.8238C9.58641 29.968 9.89561 30.0148 10.1937 29.9561C10.4917 29.8973 10.7601 29.7368 10.9528 29.5019C11.1455 29.2671 11.2505 28.9726 11.2499 28.6688V17.5813C11.2505 17.2775 11.1455 16.9829 10.9528 16.7481C10.7601 16.5132 10.4917 16.3527 10.1937 16.294C9.89561 16.2353 9.58641 16.282 9.31903 16.4262C9.05165 16.5704 8.84273 16.8031 8.72805 17.0844L7.16555 20.8938C6.57795 22.3232 6.57795 23.9268 7.16555 25.3563Z" fill="#3F3D3F"/>
<path d="M31.7188 28.5156V12.1094C31.7188 11.6743 31.5459 11.257 31.2382 10.9493C30.9305 10.6416 30.5132 10.4688 30.0781 10.4688H29.2969C28.8618 10.4688 28.4445 10.6416 28.1368 10.9493C27.8291 11.257 27.6562 11.6743 27.6562 12.1094V17.4469C27.6562 17.5853 27.6013 17.718 27.5034 17.8159C27.4055 17.9138 27.2728 17.9688 27.1344 17.9688C27.066 17.9688 26.9983 17.9552 26.9351 17.929C26.872 17.9027 26.8147 17.8642 26.7665 17.8157C26.7182 17.7672 26.6801 17.7097 26.6542 17.6464C26.6283 17.5831 26.6152 17.5153 26.6156 17.4469V12.1094C26.6156 11.6743 26.4428 11.257 26.1351 10.9493C25.8274 10.6416 25.4101 10.4688 24.975 10.4688H24.1937C23.7586 10.4688 23.3413 10.6416 23.0337 10.9493C22.726 11.257 22.5531 11.6743 22.5531 12.1094V17.4469C22.5531 17.5853 22.4981 17.718 22.4003 17.8159C22.3024 17.9138 22.1697 17.9688 22.0312 17.9688C21.8928 17.9688 21.7601 17.9138 21.6622 17.8159C21.5644 17.718 21.5094 17.5853 21.5094 17.4469V12.1094C21.5094 11.6743 21.3365 11.257 21.0288 10.9493C20.7212 10.6416 20.3039 10.4688 19.8688 10.4688H19.0875C18.6524 10.4688 18.2351 10.6416 17.9274 10.9493C17.6197 11.257 17.4469 11.6743 17.4469 12.1094V17.4469C17.4473 17.5153 17.4342 17.5831 17.4083 17.6464C17.3824 17.7097 17.3443 17.7672 17.296 17.8157C17.2478 17.8642 17.1905 17.9027 17.1274 17.929C17.0642 17.9552 16.9965 17.9688 16.9281 17.9688C16.7897 17.9688 16.657 17.9138 16.5591 17.8159C16.4612 17.718 16.4062 17.5853 16.4062 17.4469V12.1094C16.4062 11.6743 16.2334 11.257 15.9257 10.9493C15.618 10.6416 15.2007 10.4688 14.7656 10.4688H13.9844C13.5493 10.4688 13.132 10.6416 12.8243 10.9493C12.5166 11.257 12.3438 11.6743 12.3438 12.1094V28.5156C12.3438 28.9507 12.5166 29.368 12.8243 29.6757C13.132 29.9834 13.5493 30.1562 13.9844 30.1562H30.0781C30.5132 30.1562 30.9305 29.9834 31.2382 29.6757C31.5459 29.368 31.7188 28.9507 31.7188 28.5156Z" fill="#3F3D3F"/>
</g>
<defs>
<clipPath id="clip0_2053_1126">
<rect width="40" height="40" fill="white"/>
</clipPath>
</defs>
</svg>
