<svg width="40" height="40" viewBox="0 0 40 40" fill="none" xmlns="http://www.w3.org/2000/svg">
<g clip-path="url(#clip0_2053_1090)">
<path d="M26.7688 13.3156C29.975 15.5938 31.8406 19.8063 30.425 23.6282C29.0938 27.2313 25.3719 29.4844 21.6219 29.5907C22.2951 29.3528 22.8998 28.9539 23.3834 28.4286C23.867 27.9033 24.2146 27.2676 24.396 26.5771C24.5774 25.8865 24.5871 25.1621 24.4241 24.467C24.2612 23.7718 23.9306 23.1272 23.4612 22.5892C22.9918 22.0512 22.3978 21.6363 21.7312 21.3806C21.0646 21.1249 20.3455 21.0363 19.6368 21.1225C18.928 21.2086 18.2511 21.4669 17.6651 21.8748C17.0791 22.2827 16.6019 22.8278 16.275 23.4625C14.7125 26.4625 17.1813 29.4531 19.875 30.65C22.9281 32.0125 26.4563 31.0063 28.9063 28.9C24.6875 34.6875 16.1469 35.7156 11.4594 29.9406C8.27189 26.0125 8.19689 20.2531 11.0938 16.0938C10.3969 18.3469 10.9375 20.625 12.8125 21.875C10.9375 18.125 12.1875 15.2844 14.7313 12.7688C15.9563 11.5563 17.5156 11.0938 18.7938 10.0344C20.2 8.8719 20.3844 6.94065 20.1156 5.24377C21.2261 5.82506 22.1428 6.71774 22.7534 7.81237C23.364 8.907 23.642 10.156 23.5531 11.4063C20 11.4219 18.6969 16.3657 21.8281 18.125C24.8781 19.85 28.4188 16.4188 26.7688 13.3156Z" fill="#ffffff"/>
</g>
<defs>
<clipPath id="clip0_2053_1090">
<rect width="40" height="40" fill="white"/>
</clipPath>
</defs>
</svg>
