<svg width="40" height="40" viewBox="0 0 40 40" fill="none" xmlns="http://www.w3.org/2000/svg">
<g clip-path="url(#clip0_2053_1094)">
<path d="M30.6251 23.7751C29.3094 26 27.6657 26.9625 25.5469 27.2126C25.0313 27.2688 24.5032 27.2126 23.9844 27.2907C23.6126 27.3376 23.3594 27.7376 23.6719 27.9157C25.1907 28.75 23.8157 29.1438 23.4001 29.4782C21.823 30.7108 19.8982 31.416 17.8982 31.4939C15.8981 31.5718 13.9242 31.0186 12.2561 29.9125C10.5879 28.8064 9.31004 27.2035 8.6034 25.3308C7.89677 23.4581 7.7972 21.4106 8.31881 19.4782C8.82207 17.5463 9.92636 15.8243 11.4722 14.5611C13.018 13.2978 14.9254 12.5585 16.9188 12.45C19.5126 12.3344 22.1188 12.3469 24.7313 12.4188C28.0719 12.5 31.1313 11.875 33.5844 9.15942C34.0376 9.91255 33.8469 10.575 33.7376 11.1875C33.3441 13.3828 32.1996 15.3729 30.5001 16.817C28.8006 18.2611 26.6519 19.0693 24.4219 19.1032C23.4844 19.125 22.5469 19.1032 21.6094 19.1282C21.2969 19.1282 20.9407 19.2 20.9376 19.5969C20.9376 19.9094 21.2501 19.9969 21.5094 19.9813C24.9469 19.8094 28.5219 20.7438 31.6469 18.5C31.8751 18.3344 32.1469 18.0094 32.4438 18.3438C32.6876 18.6157 32.5094 18.9344 32.3563 19.2063C30.9688 21.6844 28.9032 23.1782 26.0376 23.4375C25.2126 23.5125 24.3751 23.4375 23.5376 23.4844C23.0563 23.5094 22.2438 23.2594 22.2188 23.9063C22.1907 24.65 23.0188 24.35 23.4688 24.3438C25.7376 24.3188 28.0219 24.6313 30.6251 23.7751Z" fill="#3F3D3F"/>
</g>
<defs>
<clipPath id="clip0_2053_1094">
<rect width="40" height="40" fill="white"/>
</clipPath>
</defs>
</svg>
