<svg width="40" height="40" viewBox="0 0 40 40" fill="none" xmlns="http://www.w3.org/2000/svg">
<g clip-path="url(#clip0_2351_6)">
<path d="M18.7907 20.0812L11.8907 23.9687L5.23755 20L11.8 16.2031L18.7907 20.0812ZM28.125 16.0312L21.2094 19.9187L28.1875 23.8094L34.75 20.0125L28.125 16.0312ZM19.2032 11.0031L12.6407 7.20935L12.5 14.9594L19.325 18.9937L19.2032 11.0031ZM27.5 25.0406L20.675 21.0062L20.7969 28.9969L27.3594 32.7906L27.5 25.0406ZM27.3938 14.8125V7.21873L20.625 10.9937L20.5407 18.9125L27.3938 14.8125ZM19.375 29.0062L19.4594 21.0875L12.6063 25.1875V32.7812L19.375 29.0062Z" fill="#ffffff"/>
</g>
<defs>
<clipPath id="clip0_2351_6">
<rect width="40" height="40" fill="white"/>
</clipPath>
</defs>
</svg>
