<svg width="40" height="40" viewBox="0 0 40 40" fill="none" xmlns="http://www.w3.org/2000/svg">
<g clip-path="url(#clip0_2053_1143)">
<path d="M31.328 19.6876C31.328 9.29693 18.4374 3.81256 10.9374 11.0219C3.3874 18.2969 8.58115 31.3938 19.0624 31.7126C24.5311 31.7126 27.0436 31.2532 30.9124 30.2626C29.7435 29.7841 28.6629 29.1134 27.7155 28.2782C28.8604 27.1597 29.7698 25.8235 30.3903 24.3481C31.0107 22.8727 31.3295 21.2881 31.328 19.6876ZM14.453 20.6251C13.7596 20.6237 13.0897 20.3732 12.5656 19.9191C12.0415 19.465 11.6982 18.8376 11.5981 18.1514C11.4981 17.4652 11.6481 16.7659 12.0207 16.1811C12.3934 15.5963 12.9638 15.1649 13.628 14.9657C13.607 15.1064 13.5955 15.2484 13.5937 15.3907C13.5926 15.8411 13.697 16.2855 13.8986 16.6883C14.1002 17.0912 14.3934 17.4411 14.7546 17.7103C15.1157 17.9794 15.5349 18.1602 15.9786 18.2382C16.4222 18.3162 16.8779 18.2892 17.3093 18.1594C17.2075 18.8444 16.8631 19.47 16.3389 19.9226C15.8147 20.3751 15.1455 20.6243 14.453 20.6251ZM24.1061 20.6251C23.4135 20.625 22.7439 20.3759 22.2196 19.9233C21.6953 19.4707 21.3511 18.8447 21.2499 18.1594C21.6812 18.2892 22.137 18.3162 22.5806 18.2382C23.0242 18.1602 23.4434 17.9794 23.8046 17.7103C24.1658 17.4411 24.4589 17.0912 24.6605 16.6883C24.8621 16.2855 24.9666 15.8411 24.9655 15.3907C24.9636 15.2484 24.9522 15.1064 24.9311 14.9657C25.5954 15.1649 26.1658 15.5963 26.5385 16.1811C26.9111 16.7659 27.0611 17.4652 26.9611 18.1514C26.861 18.8376 26.5176 19.465 25.9936 19.9191C25.4695 20.3732 24.7996 20.6237 24.1061 20.6251Z" fill="#ffffff"/>
</g>
<defs>
<clipPath id="clip0_2053_1143">
<rect width="40" height="40" fill="white"/>
</clipPath>
</defs>
</svg>
