<svg width="40" height="40" viewBox="0 0 40 40" fill="none" xmlns="http://www.w3.org/2000/svg">
<path d="M31.1749 8.24061C30.328 7.49686 26.9436 8.31249 25.9811 8.42811C22.7906 8.77733 19.6473 9.47095 16.6061 10.4969C13.4655 11.6062 10.903 13.2062 9.41864 16.3094C8.51473 18.2471 8.16447 20.3972 8.40658 22.5216C8.6487 24.6461 9.47377 26.6622 10.7905 28.3469C11.4749 27.6187 12.4561 26.8844 12.9968 26.0469C13.7186 24.9312 13.3249 22.7031 13.378 21.3031C13.3936 20.8906 13.5468 15.1812 13.8249 15.1625C14.1624 15.1406 15.0343 20.7437 15.3468 22.8312C15.3585 22.8977 15.3879 22.9598 15.4319 23.011C15.476 23.0621 15.533 23.1004 15.597 23.1219C15.661 23.1433 15.7296 23.1471 15.7955 23.1328C15.8615 23.1185 15.9224 23.0866 15.9718 23.0406C16.7155 22.3052 17.4624 21.576 18.2124 20.8531C18.7249 20.3562 18.9811 20.1625 19.1186 19.5156C19.2561 18.8687 19.153 17.9875 19.1968 17.3031C19.2218 16.8969 19.5093 11.7531 19.878 11.7281C20.2468 11.7031 21.0186 15.7375 21.3061 17.2469C21.32 17.2975 21.3464 17.3438 21.3829 17.3816C21.4193 17.4193 21.4648 17.4473 21.5149 17.4629C21.565 17.4784 21.6183 17.4811 21.6697 17.4707C21.7212 17.4602 21.7692 17.437 21.8093 17.4031C23.328 15.9312 28.0593 11.3312 28.2811 11.5375C28.503 11.7437 24.5749 17.025 23.3155 18.725C23.2872 18.7692 23.2705 18.8199 23.267 18.8724C23.2635 18.9248 23.2732 18.9772 23.2953 19.0249C23.3174 19.0726 23.3512 19.1139 23.3935 19.145C23.4358 19.1762 23.4853 19.1962 23.5374 19.2031C25.0718 19.2875 29.1624 19.5531 29.1968 19.8906C29.2311 20.2281 24.128 21.2281 23.7593 21.3C23.1343 21.4281 22.4374 21.4719 21.8124 21.6344C21.0124 21.8437 20.8749 22.0406 20.3718 22.7406C19.7468 23.5739 19.1218 24.4073 18.4968 25.2406C18.4547 25.2962 18.4288 25.3623 18.422 25.4317C18.4151 25.5011 18.4276 25.571 18.458 25.6337C18.4884 25.6964 18.5355 25.7495 18.5942 25.7872C18.6529 25.8248 18.7208 25.8454 18.7905 25.8469C20.903 25.8812 26.5686 26.0094 26.603 26.3469C26.6186 26.6281 20.978 27.5281 20.5718 27.5969C19.2811 27.8187 17.0999 27.7312 16.0655 28.4125C15.2686 28.9375 14.5343 30.3437 13.928 31.0875C15.7106 32.1394 17.7426 32.6943 19.8124 32.6943C21.8822 32.6943 23.9142 32.1394 25.6968 31.0875C28.6968 29.2969 30.0718 26.575 30.803 23.275C31.4612 20.0757 31.7547 16.8122 31.678 13.5469C31.678 12.3594 31.6343 11.1687 31.5155 9.98749C31.4686 9.59061 31.5093 8.53436 31.1749 8.24061Z" fill="#ffffff"/>
</svg>
