<svg width="40" height="40" viewBox="0 0 40 40" fill="none" xmlns="http://www.w3.org/2000/svg">
<g clip-path="url(#clip0_2053_1108)">
<path d="M20 32.5C17.5277 32.5 15.111 31.7669 13.0554 30.3934C10.9998 29.0199 9.39761 27.0676 8.45151 24.7835C7.50542 22.4995 7.25787 19.9861 7.74019 17.5614C8.2225 15.1366 9.41301 12.9093 11.1612 11.1612C12.9093 9.41301 15.1366 8.2225 17.5614 7.74019C19.9861 7.25787 22.4995 7.50542 24.7835 8.45151C27.0676 9.39761 29.0199 10.9998 30.3934 13.0554C31.7669 15.111 32.5 17.5277 32.5 20C32.5 23.3152 31.183 26.4946 28.8388 28.8388C26.4946 31.183 23.3152 32.5 20 32.5ZM20 12.5C18.5166 12.5 17.0666 12.9399 15.8332 13.764C14.5999 14.5881 13.6386 15.7594 13.0709 17.1299C12.5033 18.5003 12.3547 20.0083 12.6441 21.4632C12.9335 22.918 13.6478 24.2544 14.6967 25.3033C15.7456 26.3522 17.082 27.0665 18.5368 27.3559C19.9917 27.6453 21.4997 27.4968 22.8701 26.9291C24.2406 26.3614 25.4119 25.4002 26.236 24.1668C27.0601 22.9334 27.5 21.4834 27.5 20C27.5 18.0109 26.7098 16.1032 25.3033 14.6967C23.8968 13.2902 21.9891 12.5 20 12.5Z" fill="#ffffff"/>
</g>
<defs>
<clipPath id="clip0_2053_1108">
<rect width="40" height="40" fill="white"/>
</clipPath>
</defs>
</svg>
