<svg width="40" height="40" viewBox="0 0 40 40" fill="none" xmlns="http://www.w3.org/2000/svg">
<path d="M32.5 18.4375C32.5 12.6844 26.9031 8.02185 20 8.02185C13.0969 8.02185 7.5 12.6844 7.5 18.4375C7.5 21.5625 9.16562 24.375 11.7969 26.2937C11.4339 26.9497 11.2456 27.6878 11.25 28.4375C11.25 30.5094 12.6031 32.1875 14.2719 32.1875C15.5719 32.1875 16.6781 31.1656 17.1063 29.7375C17.4781 31.1531 18.6313 32.1875 20 32.1875C21.3687 32.1875 22.5219 31.1531 22.8938 29.7375C23.3219 31.1656 24.4281 32.1875 25.7281 32.1875C27.3969 32.1875 28.75 30.5094 28.75 28.4375C28.7544 27.6878 28.5661 26.9497 28.2031 26.2937C30.8344 24.375 32.5 21.5625 32.5 18.4375ZM20 24.7906C15.425 24.7906 11.5625 21.875 11.5625 18.4375C11.5625 15 15.425 12.0844 20 12.0844C24.575 12.0844 28.4375 15 28.4375 18.4375C28.4375 21.875 24.575 24.7906 20 24.7906Z" fill="#ffffff"/>
</svg>
