<svg width="64" height="64" viewBox="0 0 64 64" fill="none" xmlns="http://www.w3.org/2000/svg">
<g clip-path="url(#clip0_2057_1852)">
<path d="M53.44 42.7948C55.7126 38.286 56.5052 33.1753 55.7052 28.1899C54.9052 23.2045 52.5532 18.5984 48.9839 15.0271C45.4146 11.4557 40.8099 9.10104 35.8249 8.2981C30.84 7.49517 25.7288 8.28487 21.2187 10.5548M15.032 15.0295C10.5343 19.5336 8.01002 25.6399 8.01452 32.0051C8.01902 38.3704 10.5519 44.4731 15.056 48.9708C19.5601 53.4686 25.6664 55.9928 32.0316 55.9883C38.3969 55.9838 44.4996 53.4509 48.9973 48.9468" stroke="#989499" stroke-width="2.75" stroke-linecap="round" stroke-linejoin="round"/>
<path d="M26.3573 26.3305C24.8559 27.8299 24.0115 29.8643 24.01 31.9862C24.0085 34.1081 24.85 36.1437 26.3493 37.6452C27.8487 39.1467 29.8831 39.991 32.005 39.9925C34.1269 39.994 36.1625 39.1525 37.664 37.6532M39.184 28.4772C38.3842 26.8532 37.0592 25.547 35.424 24.7705" stroke="#989499" stroke-width="2.75" stroke-linecap="round" stroke-linejoin="round"/>
<path d="M8 32H24M42.6667 32H56" stroke="#989499" stroke-width="2.75" stroke-linecap="round" stroke-linejoin="round"/>
<path d="M8 8L56 56" stroke="#989499" stroke-width="2.75" stroke-linecap="round" stroke-linejoin="round"/>
</g>
<defs>
<clipPath id="clip0_2057_1852">
<rect width="64" height="64" fill="white"/>
</clipPath>
</defs>
</svg>
