<svg width="40" height="40" viewBox="0 0 40 40" fill="none" xmlns="http://www.w3.org/2000/svg">
<g clip-path="url(#clip0_2053_1131)">
<path d="M26.4187 29.85C20.9343 32.7844 13.4562 31.4313 10.2093 25.85C7.24057 20.7532 8.8562 13.5907 13.8249 10.3625C18.7937 7.13442 26.0437 8.59067 29.4812 13.325C33.4906 18.8438 30.4874 27.1188 23.4156 27.7782C20.4406 28.0532 17.1656 26.675 15.7281 23.9344C14.4468 21.4657 15.0624 17.8782 17.4031 16.2469C19.7437 14.6157 23.5312 14.9157 24.7187 17.8125C25.2218 19.0438 25.0312 20.7219 24.0749 21.6969C23.2687 22.5 21.3937 22.8125 20.5218 21.875C20.2093 21.5313 19.8687 20.8907 20.4749 20.6469C20.7124 20.5532 21.3187 20.9594 21.6031 20.9594C22.9124 20.9407 23.3281 19.2875 22.6562 18.3157C21.8406 17.1407 20.0374 17.2282 19.0124 18.025C17.7624 19 17.6062 20.6157 18.1468 22.025C19.1968 24.7469 22.6124 25.3625 24.9406 23.8063C27.2031 22.2907 27.5468 18.65 26.3999 16.3469C24.8374 13.1875 20.5187 12.2594 17.4031 13.3875C14.2874 14.5157 12.4781 17.5375 12.4031 20.7563C12.3776 22.1951 12.6961 23.6193 13.332 24.9102C13.968 26.2011 14.903 27.3215 16.0593 28.1782C19.1031 30.4032 22.8749 29.85 26.4187 29.85Z" fill="#3F3D3F"/>
</g>
<defs>
<clipPath id="clip0_2053_1131">
<rect width="40" height="40" fill="white"/>
</clipPath>
</defs>
</svg>
