<svg width="40" height="40" viewBox="0 0 40 40" fill="none" xmlns="http://www.w3.org/2000/svg">
<g clip-path="url(#clip0_2053_1139)">
<path d="M26.25 20C26.25 21.2362 25.8834 22.4445 25.1967 23.4723C24.5099 24.5001 23.5338 25.3012 22.3918 25.7743C21.2497 26.2473 19.9931 26.3711 18.7807 26.1299C17.5683 25.8888 16.4547 25.2935 15.5806 24.4194C14.7065 23.5454 14.1112 22.4317 13.8701 21.2193C13.6289 20.007 13.7527 18.7503 14.2258 17.6083C14.6988 16.4662 15.4999 15.4901 16.5277 14.8033C17.5555 14.1166 18.7639 13.75 20 13.75C21.6576 13.75 23.2473 14.4085 24.4194 15.5806C25.5915 16.7527 26.25 18.3424 26.25 20ZM26.7969 8.22815H13.2031L6.40625 20L13.2031 31.7719H26.7969L33.5938 20L26.7969 8.22815Z" fill="#3F3D3F"/>
</g>
<defs>
<clipPath id="clip0_2053_1139">
<rect width="40" height="40" fill="white"/>
</clipPath>
</defs>
</svg>
