<svg width="40" height="40" viewBox="0 0 40 40" fill="none" xmlns="http://www.w3.org/2000/svg">
<g clip-path="url(#clip0_2053_1098)">
<path d="M28.9062 23.75C28.9062 26.1121 27.9679 28.3774 26.2977 30.0477C24.6274 31.7179 22.3621 32.6562 20 32.6562C17.6379 32.6562 15.3726 31.7179 13.7023 30.0477C12.0321 28.3774 11.0938 26.1121 11.0938 23.75C11.0938 18.8313 18.2812 7.96875 20 7.96875C21.7188 7.96875 28.9062 18.8313 28.9062 23.75ZM21.0938 26.7188C19.8505 26.7188 18.6583 26.2249 17.7792 25.3458C16.9001 24.4667 16.4062 23.2745 16.4062 22.0312C16.4057 21.4234 16.5247 20.8214 16.7562 20.2594C15.9899 20.7664 15.3681 21.4636 14.9517 22.2828C14.5353 23.1019 14.3385 24.0151 14.3806 24.9331C14.4226 25.8511 14.7021 26.7425 15.1916 27.5201C15.6812 28.2978 16.3641 28.9352 17.1736 29.3701C17.9831 29.8049 18.8916 30.0223 19.8103 30.0011C20.729 29.9798 21.6265 29.7206 22.4151 29.2488C23.2036 28.777 23.8563 28.1087 24.3094 27.3093C24.7625 26.5098 25.0004 25.6064 25 24.6875C25 24.6656 25 24.6469 25 24.625C24.5721 25.2691 23.9915 25.7974 23.31 26.1627C22.6284 26.528 21.867 26.719 21.0938 26.7188Z" fill="#3F3D3F"/>
</g>
<defs>
<clipPath id="clip0_2053_1098">
<rect width="40" height="40" fill="white"/>
</clipPath>
</defs>
</svg>
